<?xml version="1.0" encoding="UTF-8" standalone="no"?>
<svg
   id="visual"
   viewBox="0 0 960 540"
   width="960"
   height="540"
   version="1.1"
   sodipodi:docname="layered-waves-haikei.svg"
   inkscape:version="1.3.2 (091e20e, 2023-11-25, custom)"
   xmlns:inkscape="http://www.inkscape.org/namespaces/inkscape"
   xmlns:sodipodi="http://sodipodi.sourceforge.net/DTD/sodipodi-0.dtd"
   xmlns="http://www.w3.org/2000/svg"
   xmlns:svg="http://www.w3.org/2000/svg">
  <defs
     id="defs8" />
  <sodipodi:namedview
     id="namedview8"
     pagecolor="#505050"
     bordercolor="#ffffff"
     borderopacity="1"
     inkscape:showpageshadow="0"
     inkscape:pageopacity="0"
     inkscape:pagecheckerboard="1"
     inkscape:deskcolor="#505050"
     inkscape:zoom="0.95680386"
     inkscape:cx="448.89033"
     inkscape:cy="284.80236"
     inkscape:window-width="1920"
     inkscape:window-height="1009"
     inkscape:window-x="1912"
     inkscape:window-y="-8"
     inkscape:window-maximized="1"
     inkscape:current-layer="visual" />
  <rect
     x="0"
     y="0"
     width="960"
     height="540"
     fill="#030848"
     id="rect1" />
  <path
     d="M0 289L26.7 281.3C53.3 273.7 106.7 258.3 160 247.7C213.3 237 266.7 231 320 240.2C373.3 249.3 426.7 273.7 480 278C533.3 282.3 586.7 266.7 640 263.5C693.3 260.3 746.7 269.7 800 266.5C853.3 263.3 906.7 247.7 933.3 239.8L960 232L960 541L933.3 541C906.7 541 853.3 541 800 541C746.7 541 693.3 541 640 541C586.7 541 533.3 541 480 541C426.7 541 373.3 541 320 541C266.7 541 213.3 541 160 541C106.7 541 53.3 541 26.7 541L0 541Z"
     fill="#6172f3"
     id="path1" />
  <path
     d="M0 271L26.7 280.8C53.3 290.7 106.7 310.3 160 311.2C213.3 312 266.7 294 320 291.8C373.3 289.7 426.7 303.3 480 305.7C533.3 308 586.7 299 640 299.7C693.3 300.3 746.7 310.7 800 310.7C853.3 310.7 906.7 300.3 933.3 295.2L960 290L960 541L933.3 541C906.7 541 853.3 541 800 541C746.7 541 693.3 541 640 541C586.7 541 533.3 541 480 541C426.7 541 373.3 541 320 541C266.7 541 213.3 541 160 541C106.7 541 53.3 541 26.7 541L0 541Z"
     fill="#5664df"
     id="path2" />
  <path
     d="M0 321L26.7 327.5C53.3 334 106.7 347 160 348.8C213.3 350.7 266.7 341.3 320 338.5C373.3 335.7 426.7 339.3 480 340C533.3 340.7 586.7 338.3 640 338C693.3 337.7 746.7 339.3 800 338C853.3 336.7 906.7 332.3 933.3 330.2L960 328L960 541L933.3 541C906.7 541 853.3 541 800 541C746.7 541 693.3 541 640 541C586.7 541 533.3 541 480 541C426.7 541 373.3 541 320 541C266.7 541 213.3 541 160 541C106.7 541 53.3 541 26.7 541L0 541Z"
     fill="#4b55cb"
     id="path3" />
  <path
     d="M0 378L26.7 379.8C53.3 381.7 106.7 385.3 160 378.7C213.3 372 266.7 355 320 354.5C373.3 354 426.7 370 480 369.8C533.3 369.7 586.7 353.3 640 350C693.3 346.7 746.7 356.3 800 360.8C853.3 365.3 906.7 364.7 933.3 364.3L960 364L960 541L933.3 541C906.7 541 853.3 541 800 541C746.7 541 693.3 541 640 541C586.7 541 533.3 541 480 541C426.7 541 373.3 541 320 541C266.7 541 213.3 541 160 541C106.7 541 53.3 541 26.7 541L0 541Z"
     fill="#4048b8"
     id="path4" />
  <path
     d="M0 390L26.7 391.8C53.3 393.7 106.7 397.3 160 397.2C213.3 397 266.7 393 320 389C373.3 385 426.7 381 480 386.2C533.3 391.3 586.7 405.7 640 406.7C693.3 407.7 746.7 395.3 800 391.2C853.3 387 906.7 391 933.3 393L960 395L960 541L933.3 541C906.7 541 853.3 541 800 541C746.7 541 693.3 541 640 541C586.7 541 533.3 541 480 541C426.7 541 373.3 541 320 541C266.7 541 213.3 541 160 541C106.7 541 53.3 541 26.7 541L0 541Z"
     fill="#343aa5"
     id="path5" />
  <path
     d="M0 418L26.7 419.8C53.3 421.7 106.7 425.3 160 424.3C213.3 423.3 266.7 417.7 320 420.7C373.3 423.7 426.7 435.3 480 441.7C533.3 448 586.7 449 640 444C693.3 439 746.7 428 800 428.2C853.3 428.3 906.7 439.7 933.3 445.3L960 451L960 541L933.3 541C906.7 541 853.3 541 800 541C746.7 541 693.3 541 640 541C586.7 541 533.3 541 480 541C426.7 541 373.3 541 320 541C266.7 541 213.3 541 160 541C106.7 541 53.3 541 26.7 541L0 541Z"
     fill="#282d92"
     id="path6" />
  <path
     d="M0 476L26.7 471C53.3 466 106.7 456 160 453.8C213.3 451.7 266.7 457.3 320 457.7C373.3 458 426.7 453 480 453.7C533.3 454.3 586.7 460.7 640 465.7C693.3 470.7 746.7 474.3 800 474.3C853.3 474.3 906.7 470.7 933.3 468.8L960 467L960 541L933.3 541C906.7 541 853.3 541 800 541C746.7 541 693.3 541 640 541C586.7 541 533.3 541 480 541C426.7 541 373.3 541 320 541C266.7 541 213.3 541 160 541C106.7 541 53.3 541 26.7 541L0 541Z"
     fill="#1a2080"
     id="path7" />
  <path
     d="M0 506L26.7 501.8C53.3 497.7 106.7 489.3 160 487.3C213.3 485.3 266.7 489.7 320 492.5C373.3 495.3 426.7 496.7 480 495.3C533.3 494 586.7 490 640 491C693.3 492 746.7 498 800 497.7C853.3 497.3 906.7 490.7 933.3 487.3L960 484L960 541L933.3 541C906.7 541 853.3 541 800 541C746.7 541 693.3 541 640 541C586.7 541 533.3 541 480 541C426.7 541 373.3 541 320 541C266.7 541 213.3 541 160 541C106.7 541 53.3 541 26.7 541L0 541Z"
     fill="#09146e"
     id="path8" />
  <circle
     style="fill:#ffffff;stroke-width:0.852"
     id="path9"
     cx="778.32544"
     cy="119.24644"
     r="44.341801" />
</svg>
